<svg width="305" height="167" viewBox="0 0 305 167" fill="none" xmlns="http://www.w3.org/2000/svg">
<path d="M200 114.914C200 133.324 155.228 167 100 167C44.7715 167 0 133.324 0 114.914C0 96.5035 44.7715 100.33 100 100.33C155.228 100.33 200 96.5035 200 114.914Z" fill="#D1D5DB"/>
<rect x="196.868" y="111.684" width="17.6917" height="6" transform="rotate(-10 196.868 111.684)" fill="#8B8B8B"/>
<rect x="213.423" y="103.688" width="89.722" height="16" rx="4" transform="rotate(-10 213.423 103.688)" fill="#8B8B8B"/>
<path d="M79.2704 7.35175C77.0995 7.35175 73.3107 9.22028 72.0877 11.0547C70.5339 13.3856 69.258 16.5842 70.5007 19.4247C71.1723 20.9597 71.9658 22.3549 72.7108 23.8448C73.1366 24.6965 74.2501 25.7679 75.0266 26.3017C75.8265 26.8516 76.4165 27.8677 77.1544 28.5235C78.0786 29.3451 78.957 30.2173 79.8817 31.0392C80.4084 31.5074 81.0012 31.7238 81.4922 32.2148C82.5012 33.2238 82.9362 34.3305 83.6199 35.6004C84.2676 36.8032 84.3488 37.95 84.3488 39.3034C84.3488 40.5026 84.3941 41.6732 84.1842 42.8536C84.0572 43.568 83.7411 44.4771 83.714 45.1812C83.6509 46.8217 82.5541 48.6843 81.8096 50.095C81.0531 51.5284 80.2393 52.8964 79.482 54.327C78.7411 55.7263 77.9846 57.2375 77.413 58.7236C76.9401 59.9533 76.7711 61.099 76.4726 62.3678C76.2069 63.4971 76.5196 64.3827 76.5196 65.4948C76.5196 66.5771 76.308 67.7169 76.308 68.7158" stroke="#EF4444" stroke-width="8" stroke-linecap="round"/>
<path d="M102.418 11C100.247 11 96.4583 12.8685 95.2353 14.703C93.6815 17.0338 92.4056 20.2325 93.6483 23.073C94.3199 24.6079 95.1134 26.0031 95.8584 27.4931C96.2842 28.3448 97.3977 29.4161 98.1742 29.95C98.9741 30.4999 99.5641 31.5159 100.302 32.1718C101.226 32.9934 102.105 33.8655 103.029 34.6875C103.556 35.1557 104.149 35.372 104.64 35.863C105.649 36.872 106.084 37.9787 106.768 39.2486C107.415 40.4515 107.496 41.5983 107.496 42.9516C107.496 44.1509 107.542 45.3214 107.332 46.5018C107.205 47.2162 106.889 48.1253 106.862 48.8294C106.799 50.4699 105.702 52.3326 104.957 53.7432C104.201 55.1767 103.387 56.5447 102.63 57.9753C101.889 59.3746 101.132 60.8857 100.561 62.3718C100.088 63.6015 99.9187 64.7473 99.6202 66.0161C99.3545 67.1453 99.6672 68.031 99.6672 69.143C99.6672 70.2253 99.4556 71.3652 99.4556 72.3641" stroke="#EF4444" stroke-width="8" stroke-linecap="round"/>
<path d="M125.418 4C123.247 4 119.458 5.86854 118.235 7.703C116.681 10.0338 115.406 13.2325 116.648 16.073C117.32 17.6079 118.113 19.0031 118.858 20.4931C119.284 21.3448 120.398 22.4161 121.174 22.95C121.974 23.4999 122.564 24.5159 123.302 25.1718C124.226 25.9934 125.105 26.8655 126.029 27.6875C126.556 28.1557 127.149 28.372 127.64 28.863C128.649 29.872 129.084 30.9787 129.768 32.2486C130.415 33.4515 130.496 34.5983 130.496 35.9516C130.496 37.1509 130.542 38.3214 130.332 39.5018C130.205 40.2162 129.889 41.1253 129.862 41.8294C129.799 43.4699 128.702 45.3326 127.957 46.7432C127.201 48.1767 126.387 49.5447 125.63 50.9753C124.889 52.3746 124.132 53.8857 123.561 55.3718C123.088 56.6015 122.919 57.7473 122.62 59.0161C122.354 60.1453 122.667 61.031 122.667 62.143C122.667 63.2253 122.456 64.3652 122.456 65.3641" stroke="#EF4444" stroke-width="8" stroke-linecap="round"/>
<path d="M194 115C194 116.233 193.141 118.612 188.67 121.783C184.356 124.844 177.723 127.845 168.987 130.466C151.591 135.685 127.199 139 100 139C72.8015 139 48.4095 135.685 31.0134 130.466C22.2772 127.845 15.6444 124.844 11.3297 121.783C6.85907 118.612 6 116.233 6 115C6 113.767 6.85907 111.388 11.3297 108.217C15.6444 105.156 22.2772 102.155 31.0134 99.5338C48.4095 94.3149 72.8015 91 100 91C127.199 91 151.591 94.3149 168.987 99.5338C177.723 102.155 184.356 105.156 188.67 108.217C193.141 111.388 194 113.767 194 115Z" fill="white" stroke="#D1D5DB" stroke-width="12"/>
<ellipse cx="100.5" cy="115" rx="88.5" ry="19" fill="#282828"/>
</svg>
